<svg width="1440" height="311" viewBox="0 0 1440 311" fill="none" xmlns="http://www.w3.org/2000/svg">
<rect x="-19" width="1465" height="311" fill="#23372D"/>
<path d="M1459 168.394V228.583C1438.65 226.873 1418.3 225.847 1397.56 225.847C1277.81 225.847 1166.67 257.309 1073.92 311H962C1077.44 221.059 1230.07 166 1397.56 166C1418.3 166 1438.65 166.684 1459 168.394Z" fill="#76D576"/>
<path d="M-8 106.217L-8 61.3868C7.1496 62.6604 22.2992 63.4245 37.7401 63.4245C126.89 63.4245 209.63 39.9906 278.677 2.32333e-05L362 3.05176e-05C276.055 66.9906 162.433 108 37.7401 108C22.2992 108 7.1496 107.491 -8 106.217Z" fill="white"/>
</svg>
