<svg width="24" height="24" viewBox="0 0 24 24" fill="none" xmlns="http://www.w3.org/2000/svg">
<path d="M18.1666 14.3797C17.4949 14.2352 16.9635 14.5471 16.493 14.8194C16.0112 15.1001 15.0949 15.8434 14.5697 15.6531C11.8809 14.546 9.35192 12.1925 8.25717 9.49286C8.06423 8.95647 8.80403 8.0344 9.08262 7.54686C9.35295 7.07492 9.65836 6.53852 9.51907 5.86178C9.39319 5.25366 7.765 3.18188 7.18926 2.61533C6.80955 2.2411 6.42056 2.03527 6.02126 2.00201C4.51998 1.93756 2.8433 3.94073 2.54924 4.41996C1.81253 5.44181 1.81666 6.80152 2.56162 8.45021C4.35696 12.8786 11.1473 19.5618 15.5923 21.4246C16.4125 21.8082 17.1627 22.0005 17.8364 22.0005C18.4958 22.0005 19.0829 21.8165 19.5874 21.4516C19.9681 21.2323 22.0534 19.4724 21.9987 17.9307C21.9657 17.5378 21.7604 17.1448 21.391 16.7644C20.8287 16.1833 18.7702 14.5065 18.1666 14.3797Z" fill="#23372D"/>
</svg>
