<?xml version="1.0" encoding="utf-8"?>
<!-- Generator: Adobe Illustrator 22.0.1, SVG Export Plug-In . SVG Version: 6.00 Build 0)  -->
<svg version="1.1" id="Layer_1" xmlns="http://www.w3.org/2000/svg" xmlns:xlink="http://www.w3.org/1999/xlink" x="0px" y="0px"
	 viewBox="0 0 428.7 244.5" style="enable-background:new 0 0 428.7 244.5;" xml:space="preserve">
<style type="text/css">
	.st0{fill:#76D576;}
	.st1{fill:#21362C;}
</style>
<path class="st0" d="M272.4,58.8c1,4.8,1.4,9.6,1.3,14.5c-3.6,0-7.2-0.3-10.7-0.8c-2.4-0.3-4.7-0.6-7.1-1L272.4,58.8z"/>
<path class="st0" d="M260.6,31.1c0.2,0.3,0.4,0.5,0.6,0.8c3.1,4.6,5.7,9.5,7.7,14.7l-25.3,22.8c0,0-13.1-2.3-20.4-3.7
	C234.7,53.2,247.2,41.7,260.6,31.1z"/>
<path class="st0" d="M250,19c-15.4,13.3-29.5,28.1-42,44.3c-6.5-1-13.5-1.9-21.2-2.6C200.4,39.6,217,21.4,232.2,7
	C238.7,10.1,244.7,14.1,250,19z"/>
<path class="st0" d="M215.5,1.5c-14.8,16-30.3,35.8-42.1,58.2c-6.1-0.2-12.2-0.2-18.3,0.1c0.1-0.3,0.2-0.5,0.3-0.7
	C164,37.5,176.3,17.8,189,1C197.8-0.5,206.8-0.3,215.5,1.5z"/>
<path class="st0" d="M166.9,8.5c-8.1,13.5-14.8,27.7-20,42.5c-1.2,3.3-2.2,6.5-3.2,9.6c-5,0.5-9.9,1-14.7,1.7
	C132.4,39.3,146.5,19.4,166.9,8.5L166.9,8.5z"/>
<path class="st1" d="M254,122.5c-3.7,3.9-7.8,7.4-12.3,10.5c-22.8,15.5-52.4,16.7-76.4,3.2l2.9-0.9c3.6-1.2,7.2-2.2,10.9-3.2
	c8.5-2.3,17.1-4.1,25.8-5.4c2.2-0.3,4.3-0.6,6.4-0.9c5.3-0.7,10.3-1.2,15-1.6C236.5,123.2,245.6,122.8,254,122.5z"/>
<path class="st1" d="M268.6,99.4c-2.1,5.3-4.8,10.3-8,14.9c-8,0-16.4-0.1-25.8,0c-5,0.1-10.2,0.2-15.8,0.4
	c-6.3,0.3-13.1,0.8-20.5,1.5c-4,0.4-7.9,0.9-11.8,1.5c-3.4,0.6-6.7,1.1-10.1,1.8l-1.6,0.3c-6.6,1.4-13,3.1-19.3,4.9
	c-1.4,0.4-2.9,0.9-4.4,1.3c-4-3.8-7.6-8-10.7-12.6c-0.9-1.3-1.8-2.7-2.6-4.1c0.3-0.1,0.5-0.2,0.8-0.2c5-1.5,10-2.9,15.2-4.2
	c3.5-0.9,7.1-1.7,10.7-2.4c6.6-1.4,13.4-2.4,20.3-3.2c3.6-0.4,7.3-0.7,10.9-0.9c0.7-0.1,1.4-0.1,2-0.1c13.1-0.7,24.4-0.6,34.4-0.3
	c6.4,0.2,12.4,0.5,18,0.7C256.9,99.1,262.8,99.3,268.6,99.4z"/>
<path class="st1" d="M273.3,80.4c-0.4,3.9-1.1,7.8-2.2,11.6c-4,0-8-0.2-12-0.5c-6-0.4-12.3-1-18.9-1.6c-5.1-0.5-10.5-0.9-16.3-1.3
	S212,88,205.3,87.8c-4.3-0.1-8.9-0.1-13.6-0.1c-0.2,0-0.4,0-0.6,0c-6.6,0.1-13.3,0.5-19.8,1.2c-3.9,0.4-7.7,0.9-11.5,1.5
	c-5.5,0.8-10.8,1.8-16.1,3c-3.2,0.7-6.4,1.4-9.5,2.2c-0.6,0.1-1.3,0.3-1.9,0.5c-2.2-6.3-3.4-12.9-3.8-19.5c3.6-0.7,7.3-1.4,11.1-2
	c3.5-0.6,7.1-1.1,10.7-1.5c5.8-0.7,11.6-1.2,17.5-1.5c4.2-0.2,8.4-0.3,12.6-0.3c2.3,0,4.6,0.1,6.9,0.2c5,0.2,9.7,0.5,14.1,0.9
	c5.3,0.4,10.2,0.9,14.8,1.4c13.7,1.6,25.1,3.5,35.9,4.9C259.1,79.6,266.2,80.2,273.3,80.4z"/>
<path class="st1" d="M294.3,73.9c-0.1,50.8-41.4,91.9-92.2,91.8c-26.1-0.1-51-11.2-68.4-30.7l6.9-6.9c29.8,34.2,81.7,37.9,115.9,8.1
	s37.9-81.7,8.1-115.9c-2.5-2.9-5.2-5.6-8.1-8.1l6.9-6.9C283.1,22.7,294.4,47.6,294.3,73.9z"/>
<path class="st1" d="M57,219.4c-5.4,0.7-5.8,1.2-5.8,6.4v7.3c-0.1,2.8,0.1,5.6,0.5,8.3c-5.4,1.2-12.5,3.1-19.8,3.1
	C12.1,244.5,0,232.2,0,214.6c0-18.5,15-29.5,32.5-29.5c6.1,0.1,12.2,0.8,18.2,2.2c0.2,3.2,0.6,8.6,1.3,14.1l-2.6,0.5
	c-2.1-7.4-4.6-10.6-10.1-12.4c-2.6-0.8-5.4-1.1-8.1-1.1c-13.4,0-22,9.2-22,25.2c0,13.9,7.2,27.7,24.1,27.7c2.6,0.1,5.1-0.5,7.4-1.5
	c1.8-1,3-2,3-5.6v-7.2c0-6.4-0.7-7.1-9.1-7.7v-2.5H57V219.4z"/>
<path class="st1" d="M115.6,243.9c-1.1,0-2.1-0.1-3.2-0.2c-6.4-0.4-9.8-2.1-13.6-7.5c-3.2-4.5-6.4-10-9.2-14.4
	c-1.8-2.8-2.9-3.3-7.3-3.3h-3.1v13.7c0,7.4,1,7.9,8,8.6v2.4H63.8v-2.4c7.3-0.8,7.9-1.1,7.9-8.6v-34.8c0-7.4-1-7.7-7.9-8.5v-2.5h22.3
	c6.4,0,10.7,0.8,14,3c3.6,2.3,5.9,6.2,5.9,11.5c0,7.5-4.8,12.2-11.3,15c1.6,2.7,5.3,8.6,8,12.5c2.1,3.2,4.4,6.2,6.9,9
	c1.7,2,3.9,3.3,6.4,4L115.6,243.9z M83.4,215.5c4.6,0,7.4-0.7,9.6-2.5c3.4-2.5,4.8-6,4.8-10.8c0-9.4-6.2-12.8-12.9-12.8
	c-2.5,0-4,0.4-4.6,0.9c-0.8,0.6-1.1,1.5-1.1,3.8v21.4H83.4z"/>
<path class="st1" d="M153.1,243.2v-2.4c5.7-0.7,6.4-1.6,5.2-4.9s-2.9-7.8-4.7-13.3h-18.9c-1.4,3.9-2.7,7.4-3.9,10.9
	c-1.9,5.7-0.7,6.4,6.5,7.3v2.4H117v-2.4c5.5-0.7,6.9-1.3,10-9.2l18-45.9l2.8-0.5c5.5,15,11.5,31.5,17.1,46.6c2.8,7.6,3.6,8.3,9.8,9
	v2.4H153.1z M144.3,196.6c-2.8,7.5-5.8,15.5-8.4,22.4h16.4L144.3,196.6z"/>
<path class="st1" d="M227.2,243.2v-2.4c7.2-0.7,7.4-1.2,7.3-10.6l0.1-35.7c-7.2,16-18.7,41-21.8,48.7h-2.3c-3-8-12.9-32-19.5-47.8
	c-1.5,30.6-1.6,37.5-1.6,39.2c0.1,4.9,2.3,5.6,8.2,6.2v2.4H177v-2.4c5.1-0.5,7.2-1.6,7.9-6.3c0.5-3.8,0.6-7,2.9-38.9
	c0.4-4.5-0.5-6-8.2-6.7v-2.5h15.2l19.3,44.3l20.7-44.3h15.3v2.5c-7.5,0.9-8.5,1.7-8.3,7.8l0.4,33.6c0.4,9.4,0.6,9.8,8.3,10.6v2.4
	H227.2z"/>
<path class="st1" d="M303.7,229.3c-0.5,2.3-2.9,11.3-3.8,13.9h-42.5v-2.4c8.1-0.6,8.7-1.4,8.7-8.6v-34.5c0-7.8-1-8.2-7.5-8.8v-2.5
	h26.8c8.2,0,11.6-0.1,12.7-0.2c0.1,2.2,0.4,8.7,0.8,13.4l-2.6,0.4c-0.6-2.3-1.5-4.5-2.6-6.6c-1.4-2.9-3.4-3.5-8.7-3.5h-8.3
	c-2.7,0-2.9,0.3-2.9,2.8V212h9.7c6.5,0,7-1.3,8-7.3h2.7v18h-2.7c-1.1-6.3-1.8-7.2-8.1-7.2h-9.6V233c0,6.1,1.9,6.6,6.3,6.7h8.1
	c5.3,0,6.2-0.8,8.1-3.1c1.7-1.8,3.5-5.4,4.7-8L303.7,229.3z"/>
<path class="st1" d="M370.2,188.8c-5.6,0.6-7.4,1.5-7.7,5.5c-0.1,2.8-0.3,6.5-0.3,14.6v35h-3.3l-37.4-45.7v21.9
	c0,7.9,0.3,11.8,0.4,14.3c0.2,4.5,2.4,5.8,8.7,6.3v2.4h-21.3v-2.4c5.4-0.4,7.5-1.8,7.9-6c0.3-2.8,0.4-6.7,0.4-14.7v-22.3
	c0-2.5-0.2-3.9-1.8-5.8c-1.7-2.2-3.5-2.7-7.8-3.1v-2.5h13.1l37.1,44V209c0-8.1-0.2-11.9-0.4-14.5c-0.3-3.9-2.3-5.1-9.3-5.6v-2.5
	h21.6V188.8z"/>
<path class="st1" d="M407.1,243.2v-2.4c5.7-0.7,6.4-1.6,5.2-4.9s-2.9-7.8-4.7-13.3h-18.9c-1.4,3.9-2.7,7.4-3.9,10.9
	c-1.9,5.7-0.7,6.4,6.5,7.3v2.4H371v-2.4c5.5-0.7,6.9-1.3,10-9.2l18.1-45.9l2.8-0.5c5.5,15,11.5,31.5,17,46.6c2.8,7.6,3.6,8.3,9.8,9
	v2.4H407.1z M398.4,196.6c-2.8,7.5-5.8,15.5-8.4,22.4h16.3L398.4,196.6z"/>
</svg>
