<svg width="48" height="48" viewBox="0 0 48 48" fill="none" xmlns="http://www.w3.org/2000/svg">
<g clip-path="url(#clip0)">
<path d="M0 5.20361V31.9504L14.8576 18.577L0 5.20361Z" fill="#5CC74C"/>
<path d="M40.6451 3.00195H2.44604L21.5456 20.1936L40.6451 3.00195Z" fill="#5CC74C"/>
<path d="M31.2756 21.3154C33.0661 20.4923 35.0568 20.0324 37.1531 20.0324C39.273 20.0324 41.2848 20.503 43.0909 21.3436V5.20361L28.2334 18.577L31.2756 21.3154Z" fill="#5CC74C"/>
<path d="M28.3712 23.1039L25.7875 20.7783L21.5455 24.5965L17.3036 20.7783L2.44604 34.1517H23.0336C23.0337 29.6829 25.1209 25.693 28.3712 23.1039Z" fill="#5CC74C"/>
<path d="M37.1532 23.3052C31.1722 23.3052 26.3063 28.1711 26.3063 34.152C26.3063 40.1329 31.1722 44.9989 37.1532 44.9989C43.1342 44.9989 48.0001 40.133 48.0001 34.152C48.0001 28.171 43.1342 23.3052 37.1532 23.3052ZM35.7952 40.1012L29.3799 33.6857L31.6941 31.3716L35.7952 35.4728L41.908 29.3599L44.2222 31.6741L35.7952 40.1012Z" fill="#5CC74C"/>
</g>
<defs>
<clipPath id="clip0">
<rect width="48" height="48" fill="white"/>
</clipPath>
</defs>
</svg>
